<mxfile host="65bd71144e">
    <diagram id="lFyRF57WMhDG5nA4d3cN" name="PÃ¡gina-1">
        <mxGraphModel dx="6601" dy="4244" grid="1" gridSize="10" guides="1" tooltips="1" connect="1" arrows="1" fold="1" page="1" pageScale="1" pageWidth="827" pageHeight="1169" math="0" shadow="0">
            <root>
                <mxCell id="0"/>
                <mxCell id="1" parent="0"/>
                <mxCell id="34" value="&lt;b&gt;&lt;font color=&quot;#ffffff&quot; style=&quot;font-size: 60px;&quot;&gt;UTILITARIOS&lt;/font&gt;&lt;/b&gt;" style="shape=umlFrame;whiteSpace=wrap;html=1;width=120;height=30;boundedLbl=1;verticalAlign=middle;align=left;spacingLeft=5;strokeWidth=6;fontSize=40;fillColor=#fa6800;fontColor=#000000;strokeColor=#C73500;swimlaneFillColor=#666666;" vertex="1" parent="1">
                    <mxGeometry x="-3350" y="-510" width="1170" height="630" as="geometry"/>
                </mxCell>
                <mxCell id="31" value="&lt;b style=&quot;&quot;&gt;&lt;font style=&quot;font-size: 60px;&quot;&gt;FACTURACION&lt;/font&gt;&lt;/b&gt;" style="shape=umlFrame;whiteSpace=wrap;html=1;width=120;height=30;boundedLbl=1;verticalAlign=middle;align=left;spacingLeft=5;strokeWidth=6;fontSize=40;fillColor=#e3c800;fontColor=#FFFFFF;strokeColor=#B09500;swimlaneFillColor=#666666;" parent="1" vertex="1">
                    <mxGeometry x="-1911" y="-550" width="670" height="630" as="geometry"/>
                </mxCell>
                <mxCell id="41" style="edgeStyle=none;html=1;shape=flexArrow;strokeWidth=26;fillColor=#6666FF;strokeColor=#6666FF;" edge="1" parent="1" source="25" target="31">
                    <mxGeometry relative="1" as="geometry"/>
                </mxCell>
                <mxCell id="43" style="edgeStyle=none;html=1;entryX=0.914;entryY=0.004;entryDx=0;entryDy=0;entryPerimeter=0;shape=flexArrow;strokeWidth=26;fillColor=#6666FF;strokeColor=#6666FF;" edge="1" parent="1" source="25" target="34">
                    <mxGeometry relative="1" as="geometry"/>
                </mxCell>
                <mxCell id="25" value="&lt;font style=&quot;font-size: 60px;&quot;&gt;ITEM&lt;/font&gt;" style="shape=umlFrame;whiteSpace=wrap;html=1;width=120;height=30;boundedLbl=1;verticalAlign=middle;align=left;spacingLeft=5;strokeWidth=6;fontSize=40;fillColor=#f8cecc;strokeColor=#b85450;swimlaneFillColor=#666666;gradientColor=#ea6b66;" parent="1" vertex="1">
                    <mxGeometry x="-1820" y="-1355" width="670" height="630" as="geometry"/>
                </mxCell>
                <mxCell id="40" style="edgeStyle=none;html=1;shape=flexArrow;strokeWidth=26;fillColor=#6666FF;strokeColor=#6666FF;" edge="1" parent="1" source="26" target="31">
                    <mxGeometry relative="1" as="geometry"/>
                </mxCell>
                <mxCell id="42" style="edgeStyle=none;html=1;shape=flexArrow;strokeWidth=26;fillColor=#6666FF;strokeColor=#6666FF;" edge="1" parent="1" source="26" target="34">
                    <mxGeometry relative="1" as="geometry"/>
                </mxCell>
                <mxCell id="26" value="&lt;font style=&quot;font-size: 60px;&quot;&gt;&lt;b&gt;PERSONA&lt;/b&gt;&lt;/font&gt;" style="shape=umlFrame;whiteSpace=wrap;html=1;width=120;height=30;boundedLbl=1;verticalAlign=middle;align=left;spacingLeft=5;strokeWidth=6;fontSize=40;swimlaneFillColor=#666666;fillColor=#008a00;strokeColor=#005700;fontColor=#ffffff;" parent="1" vertex="1">
                    <mxGeometry x="-3050" y="-1370" width="670" height="630" as="geometry"/>
                </mxCell>
                <mxCell id="5" value="&lt;font size=&quot;1&quot; style=&quot;&quot;&gt;&lt;b style=&quot;font-size: 57px;&quot;&gt;DIAGRAMA MODELO DE ANALISIS DE NEGOCIO&lt;/b&gt;&lt;/font&gt;" style="text;html=1;strokeColor=#009999;fillColor=#009999;align=center;verticalAlign=middle;whiteSpace=wrap;rounded=0;shadow=1;glass=0;labelBackgroundColor=none;labelBorderColor=none;sketch=0;fillStyle=auto;strokeWidth=11;fontSize=41;fontColor=#ffffff;" parent="1" vertex="1">
                    <mxGeometry x="-3320" y="-1580" width="2160" height="130" as="geometry"/>
                </mxCell>
                <mxCell id="13" value="&lt;br&gt;Mantener Cliente" style="ellipse;whiteSpace=wrap;html=1;fontSize=40;verticalAlign=top;fillColor=#1ba1e2;strokeWidth=6;fontColor=#ffffff;strokeColor=#006EAF;" parent="1" vertex="1">
                    <mxGeometry x="-2970" y="-1010" width="410" height="160" as="geometry"/>
                </mxCell>
                <mxCell id="15" value="&lt;br&gt;Mantener Facturador" style="ellipse;whiteSpace=wrap;html=1;fontSize=40;verticalAlign=top;fillColor=#1ba1e2;strokeWidth=6;fontColor=#ffffff;strokeColor=#006EAF;" parent="1" vertex="1">
                    <mxGeometry x="-2920" y="-1250" width="410" height="160" as="geometry"/>
                </mxCell>
                <mxCell id="16" value="&lt;br&gt;Mantener Producto" style="ellipse;whiteSpace=wrap;html=1;fontSize=40;verticalAlign=top;fillColor=#008a00;strokeWidth=6;fontColor=#ffffff;strokeColor=#005700;" parent="1" vertex="1">
                    <mxGeometry x="-1680" y="-1270" width="410" height="160" as="geometry"/>
                </mxCell>
                <mxCell id="19" value="&lt;br&gt;Mantener Servicio" style="ellipse;whiteSpace=wrap;html=1;fontSize=40;verticalAlign=top;fillColor=#008a00;strokeWidth=6;fontColor=#ffffff;strokeColor=#005700;" parent="1" vertex="1">
                    <mxGeometry x="-1680" y="-1010" width="410" height="160" as="geometry"/>
                </mxCell>
                <mxCell id="23" value="&amp;lt;Extends&amp;gt;" style="edgeStyle=none;html=1;fontSize=40;exitX=0.5;exitY=1;exitDx=0;exitDy=0;strokeWidth=11;entryX=0.5;entryY=0;entryDx=0;entryDy=0;" parent="1" edge="1" target="22" source="21">
                    <mxGeometry x="-0.1544" relative="1" as="geometry">
                        <mxPoint x="-1679" y="-350" as="sourcePoint"/>
                        <mxPoint x="-1649" y="-170" as="targetPoint"/>
                        <Array as="points">
                            <mxPoint x="-1600" y="-240"/>
                        </Array>
                        <mxPoint y="-1" as="offset"/>
                    </mxGeometry>
                </mxCell>
                <mxCell id="21" value="&lt;br&gt;Registrar Factura" style="ellipse;whiteSpace=wrap;html=1;fontSize=40;verticalAlign=top;fillColor=#f0a30a;strokeWidth=6;fontColor=#000000;strokeColor=#BD7000;" parent="1" vertex="1">
                    <mxGeometry x="-1840" y="-460" width="440" height="160" as="geometry"/>
                </mxCell>
                <mxCell id="22" value="&lt;br&gt;Exportar Factura" style="ellipse;whiteSpace=wrap;html=1;fontSize=40;verticalAlign=top;fillColor=#f0a30a;strokeWidth=6;fontColor=#000000;strokeColor=#BD7000;" parent="1" vertex="1">
                    <mxGeometry x="-1820" y="-130" width="440" height="160" as="geometry"/>
                </mxCell>
                <mxCell id="39" style="edgeStyle=none;html=1;shape=flexArrow;strokeWidth=26;fillColor=#6666FF;strokeColor=#6666FF;" edge="1" parent="1" source="34" target="31">
                    <mxGeometry relative="1" as="geometry"/>
                </mxCell>
                <mxCell id="35" value="&lt;br&gt;Buscar Cliente" style="ellipse;whiteSpace=wrap;html=1;fontSize=40;verticalAlign=top;fillColor=#fa6800;strokeWidth=6;fontColor=#000000;strokeColor=#C73500;" vertex="1" parent="1">
                    <mxGeometry x="-3210" y="-460" width="410" height="160" as="geometry"/>
                </mxCell>
                <mxCell id="36" value="&lt;br&gt;Buscar Facturador" style="ellipse;whiteSpace=wrap;html=1;fontSize=40;verticalAlign=top;fillColor=#fa6800;strokeWidth=6;fontColor=#000000;strokeColor=#C73500;" vertex="1" parent="1">
                    <mxGeometry x="-3220" y="-250" width="410" height="160" as="geometry"/>
                </mxCell>
                <mxCell id="37" value="&lt;br&gt;Buscar Producto" style="ellipse;whiteSpace=wrap;html=1;fontSize=40;verticalAlign=top;fillColor=#fa6800;strokeWidth=6;fontColor=#000000;strokeColor=#C73500;" vertex="1" parent="1">
                    <mxGeometry x="-2670" y="-470" width="410" height="160" as="geometry"/>
                </mxCell>
                <mxCell id="38" value="&lt;br&gt;Buscar Servicio&lt;br&gt;" style="ellipse;whiteSpace=wrap;html=1;fontSize=40;verticalAlign=top;fillColor=#fa6800;strokeWidth=6;fontColor=#000000;strokeColor=#C73500;" vertex="1" parent="1">
                    <mxGeometry x="-2690" y="-250" width="410" height="160" as="geometry"/>
                </mxCell>
            </root>
        </mxGraphModel>
    </diagram>
</mxfile>